<svg id="Layer_2" data-name="Layer 2" xmlns="http://www.w3.org/2000/svg" viewBox="0 0 40 40"><defs><style>.cls-1{fill:#ffb6fa;}.cls-2{fill:#e57ce2;}.cls-3{fill:none;stroke:#0d28a6;stroke-miterlimit:10;stroke-width:1.36px;}</style></defs><g id="color"><path class="cls-1" d="M27.64,13.86l3.68-.69L31,12.66l7.63-1.53,1-1a1.38,1.38,0,0,0-2-2,1.38,1.38,0,0,1-2-1.95,1.38,1.38,0,0,0,0-1.95,1.39,1.39,0,0,0-1.95,0,1.38,1.38,0,0,1-2-1.95,1.38,1.38,0,0,0,0-1.95,1.39,1.39,0,0,0-1.95,0l-1,1L27.35,9l-.65-.42-.57,2.85"/><path class="cls-1" d="M12.22,26l-3.68.69.48.64L1.38,28.87l-1,1a1.38,1.38,0,1,0,2,1.95,1.38,1.38,0,1,1,1.95,1.95,1.38,1.38,0,0,0,2,2,1.38,1.38,0,1,1,2,1.95,1.38,1.38,0,0,0,0,2,1.39,1.39,0,0,0,1.95,0l1-1L12.66,31l.64.39.57-2.85"/><ellipse class="cls-1" cx="20" cy="20.01" rx="10.34" ry="10.34"/><path class="cls-2" d="M30.35,20a10.33,10.33,0,0,0-5.1-8.9A10.33,10.33,0,0,1,11.1,25.25,10.34,10.34,0,0,0,30.35,20Z"/></g><g id="line"><ellipse class="cls-3" cx="20" cy="20" rx="10.34" ry="10.34" transform="translate(-0.5 39.49) rotate(-88.56)"/><path class="cls-3" d="M31,12.66l7.63-1.52,1-1a1.38,1.38,0,1,0-2-1.95,1.38,1.38,0,0,1-2,0,1.39,1.39,0,0,1,0-2,1.38,1.38,0,1,0-1.95-1.95,1.38,1.38,0,0,1-2-1.95A1.38,1.38,0,0,0,29.84.41l-1,1L27.34,9"/><path class="cls-3" d="M9,27.34,1.38,28.86l-1,1a1.39,1.39,0,0,0,0,1.95,1.38,1.38,0,0,0,2,0,1.38,1.38,0,0,1,2,2,1.38,1.38,0,1,0,2,1.95,1.38,1.38,0,0,1,2,0,1.39,1.39,0,0,1,0,2,1.38,1.38,0,0,0,1.95,2l1-1L12.66,31"/><ellipse class="cls-3" cx="20" cy="19.97" rx="10.34" ry="10.34" transform="translate(-0.47 39.46) rotate(-88.56)"/></g></svg>