<svg xmlns="http://www.w3.org/2000/svg" version="1.1" viewBox="0 0 120 120">
  <!-- Generator: Adobe Illustrator 28.6.0, SVG Export Plug-In . SVG Version: 1.2.0 Build 709)  -->
  <g>
    <g id="Layer_2">
      <g>
        <g id="color">
          <path d="M81.9,41.3l10.7-2-.9-1.5,22.2-4.5,2.9-2.9c1.6-1.6,1.6-4.2,0-5.8-1.6-1.6-4.2-1.6-5.8,0-1.6,1.6-4.1,1.6-5.7,0-1.6-1.6-1.6-4.1,0-5.7,1.6-1.6,1.6-4.1,0-5.7-1.6-1.5-4.1-1.5-5.7,0-1.6,1.6-4.1,1.6-5.7,0-1.6-1.6-1.6-4.1,0-5.7,1.6-1.6,1.6-4.1,0-5.7-1.6-1.5-4.1-1.5-5.7,0l-2.9,2.9-4,22.3-1.9-1.2-1.7,8.3" fill="#ffb6fa"/>
          <path d="M37,76.6l-10.7,2,1.4,1.9-22.2,4.5-2.9,2.9c-1.6,1.6-1.5,4.2,0,5.7,1.6,1.6,4.2,1.5,5.7,0h0c1.5-1.6,4-1.7,5.7-.2,1.6,1.5,1.7,4,.2,5.7,0,0-.2.2-.2.2-1.6,1.6-1.6,4.2,0,5.8s4.2,1.6,5.8,0c1.6-1.6,4.1-1.6,5.7,0,1.6,1.6,1.6,4.1,0,5.7-1.6,1.5-1.7,4.1-.1,5.7,0,0,0,0,.1.1,1.6,1.5,4.1,1.5,5.7,0l2.9-2.9,4-22.5,1.9,1.1,1.7-8.3" fill="#ffb6fa"/>
          <circle cx="59.6" cy="59.2" r="30.1" fill="#ffb6fa"/>
          <path d="M89.8,59.2c0-10.7-5.7-20.5-14.8-25.9,8.5,14.3,3.7,32.7-10.6,41.2-9.4,5.6-21.2,5.6-30.6,0,8.4,14.3,26.9,19.1,41.2,10.7,9.2-5.4,14.8-15.3,14.8-25.9Z" fill="#e57ce2"/>
        </g>
        <g id="line">
          <circle cx="59.6" cy="59.1" r="30.1" fill="none" stroke="#0d28a6" stroke-miterlimit="10" stroke-width="4.1"/>
          <path d="M91.7,37.8l22.2-4.4,2.9-2.9c1.6-1.6,1.5-4.2,0-5.7-1.6-1.6-4.2-1.5-5.7,0-1.5,1.6-4.1,1.7-5.7.1,0,0,0,0-.1-.1-1.6-1.6-1.7-4.1-.1-5.7,0,0,0,0,.1-.1,1.6-1.5,1.7-4,.2-5.7s-4-1.7-5.7-.2c0,0-.2.2-.2.2-1.6,1.6-4.1,1.6-5.7,0-1.6-1.6-1.6-4.1,0-5.7,1-2,.3-4.4-1.7-5.4-1.2-.6-2.5-.6-3.7,0l-2.9,2.9-4.4,22.1" fill="none" stroke="#0d28a6" stroke-miterlimit="10" stroke-width="4.1"/>
          <path d="M27.6,80.5l-22.2,4.4-2.9,2.9c-1.5,1.6-1.5,4.1,0,5.7,1.5,1.6,4.1,1.7,5.7.1,0,0,0,0,.1-.1,1.6-1.6,4.2-1.6,5.8,0s1.6,4.2,0,5.8c-1.6,1.6-1.5,4.2,0,5.7,1.6,1.6,4.2,1.5,5.7,0,1.5-1.6,4.1-1.7,5.7-.1,0,0,0,0,.1.1,1.6,1.6,1.7,4.1.1,5.7,0,0,0,0-.1.1-1.6,1.6-1.6,4.1,0,5.7,1.6,1.6,4.1,1.6,5.7,0l2.9-2.9,3.9-22.6" fill="none" stroke="#0d28a6" stroke-miterlimit="10" stroke-width="4.1"/>
          <circle cx="59.6" cy="59.1" r="30.1" fill="none" stroke="#0d28a6" stroke-miterlimit="10" stroke-width="4.1"/>
        </g>
      </g>
    </g>
  </g>
</svg>
