<svg id="Layer_2" data-name="Layer 2" xmlns="http://www.w3.org/2000/svg" viewBox="0 0 40 40"><defs><style>.cls-1{fill:#0d28a6;}.cls-1,.cls-2,.cls-3{stroke:#0d28a6;stroke-miterlimit:10;stroke-width:0.63px;}.cls-2{fill:#ffa81d;}.cls-3{fill:#fff;}</style></defs><path class="cls-1" d="M26.18,26.52H28.1a.79.79,0,0,1,.67.38l2.89,4.79A.78.78,0,0,1,31,32.87H9a.78.78,0,0,1-.67-1.18l2.89-4.79a.79.79,0,0,1,.67-.38H26.18Z"/><path class="cls-2" d="M26.69,28.8,22.21,9.17a2.62,2.62,0,0,0-4.42,0L13.31,28.8A13.44,13.44,0,0,0,20,30.29,13.44,13.44,0,0,0,26.69,28.8Z"/><path class="cls-3" d="M24.37,18.65s-.46,1.16-4.37,1.16c-3.52,0-4.37-1.16-4.37-1.16l.85-3.71a8.3,8.3,0,0,0,3.52.94,8.37,8.37,0,0,0,3.53-.94Z"/><path class="cls-3" d="M25.93,25.65s-1.56,1.16-6,1.16-5.89-1.44-5.89-1.44l.85-3.71s1.52,1.24,5,1.22c4.41,0,5.12-.94,5.12-.94Z"/></svg>