<svg id="Layer_2" data-name="Layer 2" xmlns="http://www.w3.org/2000/svg" viewBox="0 0 40 40"><defs><style>.cls-1{fill:#0d28a6;}.cls-1,.cls-2,.cls-3{stroke:#0d28a6;stroke-miterlimit:10;stroke-width:0.7px;}.cls-2{fill:#ffa81d;}.cls-3{fill:#fff;}</style></defs><path class="cls-1" d="M18.64,16.83l-.87-2a.89.89,0,0,1,.09-.86L21.44,8.9A.87.87,0,0,1,23,9.05l5,11.22,5,11.22A.86.86,0,0,1,32,32.7l-6.19-.77a.88.88,0,0,1-.7-.52l-.87-1.95Z"/><path class="cls-2" d="M20.73,15.28l-18,13.47a2.77,2.77,0,0,0-.23,2.8,2.78,2.78,0,0,0,2.23,1.71L26.8,29a15.07,15.07,0,0,0-1.51-7.51A15,15,0,0,0,20.73,15.28Z"/><path class="cls-3" d="M11.42,22.25s1.4-.06,3.17,3.93c1.59,3.6.8,5,.8,5L11.21,32a9.28,9.28,0,0,0-.64-4A9.35,9.35,0,0,0,8,24.79Z"/><path class="cls-3" d="M17.87,17.48s1.89,1.07,3.89,5.58S23,29.72,23,29.72l-4.17.81s.58-2.1-1-5.69c-2-4.51-3.28-4.81-3.28-4.81Z"/></svg>