<svg id="Layer_2" data-name="Layer 2" xmlns="http://www.w3.org/2000/svg" viewBox="0 0 40 40"><defs><style>.cls-1{fill:#fff;}.cls-2{fill:#2a51de;}</style></defs><rect class="cls-1" x="9.68" y="13.53" width="21.16" height="15.25"/><g id="color"><path class="cls-2" d="M10.56,32.56A4.1,4.1,0,0,1,6.28,28.7V14.38A4.45,4.45,0,0,1,7.83,11,5.49,5.49,0,0,1,11.5,9.68h6.11V6.81a2.4,2.4,0,0,1,4.78,0V9.68H28.5a5,5,0,0,1,5.22,4.7V28.7a4.1,4.1,0,0,1-4.28,3.86Zm16.49-6.05v-.68H24.28v.68Zm-5.66,0v-.68H18.61v.68Zm-5.67,0v-.68H13v.68ZM25.66,17a1.75,1.75,0,0,0-1.86,1.6,1.88,1.88,0,0,0,3.72,0A1.75,1.75,0,0,0,25.66,17ZM14.34,17a1.75,1.75,0,0,0-1.86,1.6,1.75,1.75,0,0,0,1.86,1.61,1.75,1.75,0,0,0,1.86-1.61A1.75,1.75,0,0,0,14.34,17ZM34.6,27.51V16.41H37a2.29,2.29,0,0,1,2.39,2.18v6.74a2.05,2.05,0,0,1-.72,1.56,2.49,2.49,0,0,1-1.66.62ZM3,27.51v0A2.29,2.29,0,0,1,.62,25.33V18.59A2.05,2.05,0,0,1,1.34,17,2.49,2.49,0,0,1,3,16.41H5.4v11.1Z"/><path class="cls-1" d="M20,5.12a1.8,1.8,0,0,1,1.89,1.69v3.37H28.5a4.49,4.49,0,0,1,4.72,4.2h0V28.7a3.6,3.6,0,0,1-3.78,3.36H10.56A3.6,3.6,0,0,1,6.78,28.7V14.38a4.49,4.49,0,0,1,4.72-4.2h6.61V6.81A1.8,1.8,0,0,1,20,5.12M25.66,20.7A2.24,2.24,0,0,0,28,18.59h0a2.38,2.38,0,0,0-4.72,0,2.24,2.24,0,0,0,2.36,2.11m-11.32,0a2.24,2.24,0,0,0,2.36-2.11h0a2.24,2.24,0,0,0-2.36-2.1A2.24,2.24,0,0,0,12,18.59a2.24,2.24,0,0,0,2.36,2.11M23.78,27h3.77V25.33H23.78V27m-5.67,0h3.78V25.33H18.11V27m-5.66,0h3.77V25.33H12.45V27M37,16.91a1.8,1.8,0,0,1,1.89,1.68h0v6.74A1.79,1.79,0,0,1,37,27H35.1V16.91H37m-32.09,0V27H3a1.8,1.8,0,0,1-1.89-1.68h0V18.59A1.79,1.79,0,0,1,3,16.91H4.9M20,4.12a2.8,2.8,0,0,0-2.89,2.69V9.18H11.5a6,6,0,0,0-4,1.48,5,5,0,0,0-1.72,3.72v1.53H3a3,3,0,0,0-2,.75,2.55,2.55,0,0,0-.89,1.93v6.74A2.79,2.79,0,0,0,3,28H5.78v.69a4.6,4.6,0,0,0,4.78,4.36H29.44a4.6,4.6,0,0,0,4.78-4.36V28H37a2.92,2.92,0,0,0,2-.75,2.53,2.53,0,0,0,.89-1.93V18.59A2.79,2.79,0,0,0,37,15.91H34.22V14.38a5.49,5.49,0,0,0-5.72-5.2H22.89V6.81A2.8,2.8,0,0,0,20,4.12ZM25.66,19.7a1.26,1.26,0,0,1-1.36-1.11,1.39,1.39,0,0,1,2.72,0,1.26,1.26,0,0,1-1.36,1.11Zm-11.32,0A1.26,1.26,0,0,1,13,18.59a1.25,1.25,0,0,1,1.36-1.1,1.25,1.25,0,0,1,1.36,1.1,1.26,1.26,0,0,1-1.36,1.11Z"/></g></svg>