<svg xmlns="http://www.w3.org/2000/svg" viewBox="0 0 40 40"><defs><style>.cls-1{fill:#fff;}.cls-2{fill:#0d28a6;}</style></defs><g id="Layer_2" data-name="Layer 2"><rect class="cls-1" width="40" height="40"/><rect class="cls-2" x="0.45" y="0.45" width="12.25" height="5.77"/><rect class="cls-2" x="27.29" y="0.45" width="12.27" height="5.77"/><rect class="cls-2" x="13.65" y="0.45" width="12.71" height="5.77"/><rect class="cls-2" x="0.45" y="13.79" width="12.25" height="5.77"/><rect class="cls-2" x="27.29" y="13.79" width="12.18" height="5.77"/><rect class="cls-2" x="13.65" y="13.79" width="12.71" height="5.77"/><rect class="cls-2" x="0.45" y="27.12" width="12.25" height="5.77"/><rect class="cls-2" x="27.29" y="27.12" width="12.24" height="5.77"/><rect class="cls-2" x="13.65" y="27.12" width="12.71" height="5.77"/><rect class="cls-2" x="0.01" y="7.12" width="5.87" height="5.76"/><rect class="cls-2" x="20.47" y="7.12" width="12.71" height="5.77"/><rect class="cls-2" x="34.11" y="7.12" width="5.89" height="5.76"/><rect class="cls-2" x="6.82" y="7.12" width="12.71" height="5.77"/><rect class="cls-2" x="0.01" y="20.45" width="5.87" height="5.77"/><rect class="cls-2" x="20.47" y="20.45" width="12.71" height="5.77"/><rect class="cls-2" x="34.11" y="20.45" width="5.89" height="5.77"/><rect class="cls-2" x="6.82" y="20.45" width="12.71" height="5.77"/><rect class="cls-2" x="0.01" y="33.79" width="5.87" height="5.76"/><rect class="cls-2" x="20.47" y="33.79" width="12.71" height="5.77"/><rect class="cls-2" x="34.11" y="33.79" width="5.89" height="5.76"/><rect class="cls-2" x="6.82" y="33.79" width="12.71" height="5.77"/></g><g id="Layer_3" data-name="Layer 3"><rect class="cls-1" x="39.56" width="0.44" height="0.44"/><polygon points="40 0 39.56 0 39.56 0.44 40 0.44 40 0 40 0"/></g></svg>